<svg viewBox="0 0 109.542 42.946" xmlns="http://www.w3.org/2000/svg" xmlns:xlink="http://www.w3.org/1999/xlink" width="109.542236" height="42.946014" fill="none" customFrame="#000000">
	<defs>
		<filter id="pixso_custom_mask_type_alpha">
			<feColorMatrix type="matrix" values="0 0 0 0 1 0 0 0 0 1 0 0 0 0 1 0 0 0 1 0 " />
		</filter>
	</defs>
	<mask id="mask_0" width="42.946014" height="42.946014" x="0.000000" y="0.000000" maskUnits="userSpaceOnUse">
		<g filter="url(#pixso_custom_mask_type_alpha)">
			<rect id="Bounding box" width="42.946014" height="42.946014" x="0.000000" y="0.000000" fill="rgb(217,217,217)" />
		</g>
	</mask>
	<g id="Logo">
		<path id="Sky" d="M62.0302 30.689C61.4382 30.689 60.8942 30.545 60.3982 30.257C59.9182 29.969 59.5342 29.577 59.2462 29.081C58.9582 28.585 58.8142 28.041 58.8142 27.449L58.8142 26.297L61.6942 26.297L61.6942 27.353C61.6942 27.481 61.7342 27.585 61.8142 27.665C61.8942 27.745 61.9982 27.785 62.1262 27.785L72.7342 27.785C72.8622 27.785 72.9662 27.745 73.0462 27.665C73.1422 27.585 73.1902 27.481 73.1902 27.353L73.1902 23.921C73.1902 23.809 73.1422 23.713 73.0462 23.633C72.9662 23.537 72.8622 23.489 72.7342 23.489L62.0302 23.489C61.4382 23.489 60.8942 23.345 60.3982 23.057C59.9182 22.769 59.5342 22.385 59.2462 21.905C58.9582 21.409 58.8142 20.865 58.8142 20.273L58.8142 16.649C58.8142 16.057 58.9582 15.513 59.2462 15.017C59.5342 14.521 59.9182 14.129 60.3982 13.841C60.8942 13.553 61.4382 13.409 62.0302 13.409L72.8542 13.409C73.4462 13.409 73.9822 13.553 74.4622 13.841C74.9582 14.129 75.3502 14.521 75.6382 15.017C75.9422 15.513 76.0942 16.057 76.0942 16.649L76.0942 17.801L73.1902 17.801L73.1902 16.745C73.1902 16.617 73.1422 16.513 73.0462 16.433C72.9662 16.353 72.8622 16.313 72.7342 16.313L62.1262 16.313C61.9982 16.313 61.8942 16.353 61.8142 16.433C61.7342 16.513 61.6942 16.617 61.6942 16.745L61.6942 20.177C61.6942 20.289 61.7342 20.393 61.8142 20.489C61.8942 20.569 61.9982 20.609 62.1262 20.609L72.8542 20.609C73.4462 20.609 73.9822 20.753 74.4622 21.041C74.9582 21.329 75.3502 21.721 75.6382 22.217C75.9422 22.697 76.0942 23.233 76.0942 23.825L76.0942 27.449C76.0942 28.041 75.9422 28.585 75.6382 29.081C75.3502 29.577 74.9582 29.969 74.4622 30.257C73.9822 30.545 73.4462 30.689 72.8542 30.689L62.0302 30.689ZM78.6429 30.689L78.6429 30.689L78.6429 12.209L81.4989 12.209L81.4989 22.289L84.3069 22.289L89.3949 16.769L92.5629 16.769L92.5629 17.441L86.8509 23.729L92.5629 30.017L92.5629 30.689L89.3949 30.689L84.3069 25.169L81.4989 25.169L81.4989 30.689L78.6429 30.689ZM96.2466 35.921L96.2466 35.921L96.2466 33.041L104.719 33.041C104.831 33.041 104.927 32.993 105.007 32.897C105.103 32.817 105.151 32.721 105.151 32.609L105.151 30.689L97.0865 30.689C96.5105 30.689 95.9745 30.545 95.4785 30.257C94.9986 29.953 94.6066 29.561 94.3026 29.081C94.0145 28.601 93.8705 28.065 93.8705 27.473L93.8705 16.817L96.7265 16.817L96.7265 27.377C96.7265 27.505 96.7665 27.617 96.8465 27.713C96.9426 27.793 97.0546 27.833 97.1825 27.833L104.719 27.833C104.831 27.833 104.927 27.793 105.007 27.713C105.103 27.617 105.151 27.505 105.151 27.377L105.151 16.817L108.007 16.817L108.007 32.705C108.007 33.313 107.863 33.857 107.575 34.337C107.303 34.817 106.919 35.201 106.423 35.489C105.943 35.777 105.407 35.921 104.815 35.921L96.2466 35.921Z" fill="rgb(255,255,255)" fill-rule="nonzero" />
		<g id="ads_click" mask="url(#mask_0)">
			<path id="ads_click" d="M20.6781 31.2804C18.1249 31.0623 15.9787 30.0219 14.2397 28.1592C12.5007 26.2964 11.6312 24.0677 11.6312 21.473C11.6312 18.7391 12.5881 16.4154 14.5019 14.5019C16.4154 12.5881 18.7391 11.6312 21.473 11.6312C24.0677 11.6312 26.2964 12.4979 28.1592 14.2312C30.0219 15.9643 31.0623 18.1076 31.2804 20.6611L28.4347 19.8178C28.0479 18.2073 27.2148 16.8876 25.9354 15.8587C24.6562 14.8298 23.1688 14.3153 21.473 14.3153C19.5046 14.3153 17.8196 15.0162 16.4179 16.4179C15.0162 17.8196 14.3153 19.5046 14.3153 21.473C14.3153 23.173 14.8326 24.6641 15.8672 25.9465C16.9018 27.229 18.2187 28.064 19.8178 28.4517L20.6781 31.2804ZM22.8254 38.4C22.5999 38.4483 22.3746 38.4725 22.1494 38.4725L21.473 38.4725C19.1214 38.4725 16.9115 38.0263 14.8432 37.134C12.7749 36.2417 10.9758 35.0307 9.44588 33.501C7.91593 31.9714 6.7048 30.1726 5.81247 28.1046C4.91985 26.0366 4.47354 23.8271 4.47354 21.4761C4.47354 19.1248 4.9197 16.9148 5.81203 14.8459C6.70435 12.777 7.91534 10.9775 9.44499 9.44723C10.9746 7.91698 12.7735 6.70539 14.8414 5.81247C16.9094 4.91985 19.1189 4.47354 21.4699 4.47354C23.8212 4.47354 26.0312 4.91985 28.1001 5.81247C30.169 6.7048 31.9685 7.91593 33.4988 9.44589C35.029 10.9758 36.2406 12.7749 37.1335 14.8432C38.0262 16.9115 38.4725 19.1214 38.4725 21.473L38.4725 22.1405C38.4725 22.3629 38.4483 22.5856 38.4 22.8084L35.7883 22.0098L35.7883 21.473C35.7883 17.4766 34.4015 14.0917 31.6279 11.3181C28.8544 8.54447 25.4694 7.15767 21.473 7.15767C17.4766 7.15767 14.0917 8.54447 11.3181 11.3181C8.54447 14.0917 7.15767 17.4766 7.15767 21.473C7.15767 25.4694 8.54447 28.8544 11.3181 31.6279C14.0917 34.4015 17.4766 35.7883 21.473 35.7883L22.0098 35.7883L22.8254 38.4ZM36.0393 38.7306L27.9252 30.599L25.981 36.4764L21.473 21.473L36.4764 25.981L30.599 27.9252L38.7306 36.0393L36.0393 38.7306Z" fill="rgb(255,255,255)" fill-rule="nonzero" />
		</g>
	</g>
</svg>
